<svg xmlns="http://www.w3.org/2000/svg" viewBox="0 0 512 512">
  <defs>
    <linearGradient id="bg" x1="0" y1="0" x2="1" y2="1">
      <stop offset="0%" stop-color="#7c3aed"/>
      <stop offset="100%" stop-color="#a855f7"/>
    </linearGradient>
    <linearGradient id="cart" x1="0" y1="0" x2="0" y2="1">
      <stop offset="0%" stop-color="#fff"/>
      <stop offset="100%" stop-color="#f0e7ff"/>
    </linearGradient>
    <filter id="shadow" x="-20%" y="-20%" width="140%" height="140%">
      <feGaussianBlur stdDeviation="6"/>
    </filter>
  </defs>

  <!-- Rounded purple background -->
  <rect x="0" y="0" width="512" height="512" rx="112" ry="112" fill="url(#bg)"/>

  <!-- Subtle highlight orbs -->
  <circle cx="380" cy="120" r="80" fill="#fff" opacity="0.10"/>
  <circle cx="100" cy="420" r="100" fill="#fff" opacity="0.08"/>

  <!-- Drop shadow under cart -->
  <ellipse cx="260" cy="408" rx="120" ry="14" fill="#000" opacity="0.25" filter="url(#shadow)"/>

  <!-- Shopping cart -->
  <g stroke="url(#cart)" stroke-width="22" stroke-linecap="round" stroke-linejoin="round" fill="none">
    <!-- handle -->
    <path d="M 100 150 L 160 150 L 200 320 L 380 320"/>
    <!-- basket -->
    <path d="M 178 200 L 410 200 L 380 320" fill="url(#cart)" fill-opacity="0.95"/>
  </g>

  <!-- Wheels -->
  <circle cx="220" cy="380" r="22" fill="url(#cart)"/>
  <circle cx="220" cy="380" r="8" fill="#7c3aed"/>
  <circle cx="360" cy="380" r="22" fill="url(#cart)"/>
  <circle cx="360" cy="380" r="8" fill="#7c3aed"/>

  <!-- Heart inside basket -->
  <path d="M 294 232
           C 280 218, 250 218, 250 248
           C 250 270, 280 290, 294 304
           C 308 290, 338 270, 338 248
           C 338 218, 308 218, 294 232 Z"
        fill="#ff6b9d"/>

  <!-- Sparkle -->
  <g fill="#fff" opacity="0.9">
    <path d="M 420 100 L 425 115 L 440 120 L 425 125 L 420 140 L 415 125 L 400 120 L 415 115 Z"/>
  </g>
</svg>
